<svg width="30" height="30" viewBox="0 0 30 30" fill="none" xmlns="http://www.w3.org/2000/svg">
<rect width="30" height="30" rx="8" fill="#FCFCFC"/>
<g clip-path="url(#clip0_418_1404)">
<path d="M17.5 10.4999C17.6313 10.3686 17.7872 10.2644 17.9588 10.1933C18.1304 10.1223 18.3143 10.0857 18.5 10.0857C18.6857 10.0857 18.8696 10.1223 19.0412 10.1933C19.2128 10.2644 19.3687 10.3686 19.5 10.4999C19.6313 10.6312 19.7355 10.7871 19.8066 10.9587C19.8776 11.1303 19.9142 11.3142 19.9142 11.4999C19.9142 11.6856 19.8776 11.8695 19.8066 12.0411C19.7355 12.2127 19.6313 12.3686 19.5 12.4999L12.75 19.2499L10 19.9999L10.75 17.2499L17.5 10.4999Z" stroke="#FFBB64" stroke-linecap="round" stroke-linejoin="round"/>
</g>
<defs>
<clipPath id="clip0_418_1404">
<rect width="12" height="12" fill="white" transform="translate(9 9)"/>
</clipPath>
</defs>
</svg>
